<?xml version="1.0" encoding="iso-8859-1"?>
<!-- Generator: Adobe Illustrator 16.0.0, SVG Export Plug-In . SVG Version: 6.00 Build 0)  -->
<!DOCTYPE svg PUBLIC "-//W3C//DTD SVG 1.1//EN" "http://www.w3.org/Graphics/SVG/1.1/DTD/svg11.dtd">
<svg version="1.1" id="Capa_1" xmlns="http://www.w3.org/2000/svg" xmlns:xlink="http://www.w3.org/1999/xlink" x="0px" y="0px"
	 width="92.314px" height="92.314px" viewBox="0 0 92.314 92.314" style="enable-background:new 0 0 92.314 92.314;"
	 xml:space="preserve">
<g>
	<path d="M80.928,15.824C73.824,7.67,64.875,2.644,54.217,0.723C52.51,0.415,50.781,0.238,49.062,0c-1.927,0-3.854,0-5.781,0
		c-1.75,0.242-3.51,0.425-5.248,0.736c-8.718,1.555-16.376,5.318-22.908,11.286C7.313,19.156,2.506,27.975,0.671,38.397
		c-0.284,1.613-0.443,3.248-0.661,4.872c0,1.927,0,3.854,0,5.782c0.115,0.887,0.234,1.771,0.345,2.659
		c1.326,10.576,5.743,19.673,13.298,27.167c8.095,8.034,17.905,12.45,29.288,13.311c7.547,0.57,14.78-0.795,21.719-3.79
		c0.264-0.114,0.519-0.253,0.776-0.38l-15.104-0.014c-8.548,0.551-16.646-0.861-24.198-4.977C9.651,74.049,1.169,55.37,5.218,37.036
		C10.253,14.237,33.2-0.14,55.867,5.331c9.653,2.33,17.574,7.428,23.588,15.319c7.261,9.526,9.931,20.319,8.135,32.135
		c-1.342,8.829-5.284,16.438-11.546,22.805c-1.597,1.623-3.388,3.305-5.089,4.823l-0.25,0.202l-0.002-0.37c0,0,0-0.592,0-0.888
		l0.009-12.488l0.758-1.133c5.849-7.71,7.944-16.379,6.024-25.837c-3.496-17.227-20.006-28.212-37.24-24.969
		c-17.379,3.269-28.931,20.527-25.243,37.71c3.32,15.47,16.754,25.981,32.578,25.477c0.975-0.031,1.944-0.167,3.149-0.273
		C39.91,67.145,29.267,56.629,18.469,45.959l6.546-6.33c4.351-0.014,9.28-0.009,13.631-0.009c0.3,0,0.646,0,1.042,0l0.039-14.606
		l6.177-6.308c9.564,9.562,19.043,19.039,28.351,28.345c-2.063,2.064-4.205,4.207-6.501,6.504
		c-6.219-6.222-12.532-12.537-18.887-18.895c0,4.706,0,9.411,0,14.223c-4.75,0-9.417,0-14.308,0
		c7.633,7.541,15.099,14.916,22.563,22.291l0.207,0.183c0-3.527,0-7.354,0-10.878c3.096,0,6.099,0,9.203,0
		c0,9.007,0,17.966,0,27.175c1.594-0.925,3.055-1.668,4.41-2.572c13.379-8.921,20.661-21.417,21.32-37.487
		C92.756,35.571,88.838,24.907,80.928,15.824z"/>
</g>
<g>
</g>
<g>
</g>
<g>
</g>
<g>
</g>
<g>
</g>
<g>
</g>
<g>
</g>
<g>
</g>
<g>
</g>
<g>
</g>
<g>
</g>
<g>
</g>
<g>
</g>
<g>
</g>
<g>
</g>
</svg>
