<?xml version="1.0" standalone="no"?><svg xmlns="http://www.w3.org/2000/svg" viewBox="0 0 1440 320"><path fill="#a517ba" fill-opacity="1" d="M0,64L40,106.7C80,149,160,235,240,229.3C320,224,400,128,480,122.7C560,117,640,203,720,250.7C800,299,880,309,960,277.3C1040,245,1120,171,1200,128C1280,85,1360,75,1400,69.3L1440,64L1440,320L1400,320C1360,320,1280,320,1200,320C1120,320,1040,320,960,320C880,320,800,320,720,320C640,320,560,320,480,320C400,320,320,320,240,320C160,320,80,320,40,320L0,320Z"></path></svg>